PathFileType	4	(X/Y/Z)	C:\Users\°ÂÌØÂü\Desktop\20210112\bx_y_5_501-Unnamed.trc
DataRate	CameraRate	NumFrames	NumMarkers	Units	OrigDataRate	OrigDataStartFrame	OrigNumFrames
50.00	50.00	       9	0	mm	50.00	195	       519
Frame#	Time	
		

195	3.880	-768.34723	276.51648	748.09253	-587.88678	108.83410	1382.84534	-728.72498	283.37460	878.92291	-666.37854	220.23987	827.66846	-721.07941	74.50962	218.40259				-787.03119	253.13588	634.98706	-627.98627	293.85587	1507.09302	-709.44861	17.84492	524.95697	-783.07019	249.52737	573.41620	-816.66290	258.19318	496.43121	-723.80084	209.39377	536.96783	-602.45807	-64.60754	1509.02246	-715.64056	156.25536	220.18306	-775.11377	225.60957	202.37944	-882.63568	296.12158	144.50882	-676.71942	176.27853	160.52724	-597.06995	226.15776	174.24063	-667.76080	301.25592	157.81810	-629.76715	308.63214	160.83983	-563.23071	262.59814	165.60524	-527.88684	303.86023	145.84781	-591.52979	115.54511	1818.94934				-625.58270	-80.79417	158.34363	-562.92853	-41.77596	162.34775	-517.78888	-73.24684	142.56999	-604.23383	17.04433	168.88876	-675.48145	53.82399	161.36200	-798.08716	174.39700	182.46382	-752.09546	-47.80593	707.75018	-796.19037	54.33044	173.59361	-881.21661	96.35854	1048.64124	-803.97980	-31.88271	484.20032	-772.30280	-7.11866	204.91394	-875.97748	-78.88188	141.21204	-666.98743	-69.73479	160.14857	-765.46594	-23.07788	567.94128	-680.11249	-3.84824	1054.91064	-742.56250	147.58278	574.13672	-736.05872	81.03867	574.22083	-677.51111	223.45146	1068.10266				-757.87335	-25.53542	615.16486	
196	3.900	-764.81952	276.64737	748.38916	-589.66962	108.14091	1386.92737	-724.91064	284.24496	879.31915				-720.44293	74.59711	218.23152				-784.51672	253.60487	635.44385	-632.35645	293.84204	1510.28979	-707.57330	18.30298	525.37341	-781.12311	249.55736	573.48022	-814.79163	258.61359	496.78183	-722.11957	209.33340	536.73395	-607.83154	-65.18968	1512.92834	-715.55719	156.26538	219.91501	-775.05255	225.49202	202.28133	-882.49646	295.94296	144.45332	-676.58594	175.90765	160.62378	-597.14148	226.16301	174.15201	-667.83966	301.24951	157.86545	-629.68634	308.63495	160.80737	-563.15802	262.66711	165.72198	-528.05737	303.74829	146.16180	-600.55298	115.18638	1822.61072				-625.27197	-80.53462	158.35677	-562.73712	-41.78120	162.45857	-517.76208	-73.06253	142.54491	-604.24756	17.08095	168.76450	-675.58026	53.59092	160.97777	-797.85309	174.32671	182.50323	-749.53198	-47.82917	707.92920	-795.78162	54.80456	173.53850	-878.66394	97.51903	1048.23376	-803.27356	-32.00892	485.02499	-772.08972	-6.98421	204.93013	-876.11359	-78.76537	141.26361	-667.00769	-69.67326	160.17326	-763.64209	-21.85447	567.14435	-676.83234	-3.69354	1055.60889	-740.43347	147.76395	574.33063	-733.89404	81.36359	574.46979	-674.01825	223.05457	1068.94373				-756.33130	-24.79413	615.05438	
197	3.920	-761.34509	276.67151	748.43787	-592.60620	108.45924	1390.24060	-721.00226	284.31815	879.35553				-720.44293	74.59711	218.23152				-781.98987	253.54225	635.49463	-637.64386	292.93399	1513.14172	-706.19409	18.67323	525.26794	-778.53632	249.50456	573.30151	-813.28534	258.31784	497.04330	-720.25195	209.32726	536.58350	-613.13904	-65.70583	1516.25354	-715.68115	156.06609	219.53281	-774.98987	225.35887	202.54980	-882.50012	295.98505	144.57483	-676.20264	175.51791	160.48041	-596.97296	226.02191	174.29149	-667.66211	301.17499	157.95619	-629.83496	308.65869	160.84132	-563.06702	262.88333	165.51381	-528.00018	304.02240	146.20293	-609.17700	114.82220	1825.90930				-625.36633	-80.51108	158.48889	-562.65253	-41.86422	162.27679	-517.76868	-73.00964	142.57318	-604.21539	17.21936	168.62738	-675.72321	53.92898	160.69577	-798.15210	175.17342	181.71841	-747.18091	-47.33268	707.92584	-795.62970	54.92646	173.45984	-875.47144	98.41710	1047.67407	-801.52893	-31.47779	485.33484	-771.96368	-6.46403	204.91017	-875.99457	-78.94872	141.12155	-667.07672	-69.91351	160.33994	-761.99823	-21.84610	567.87238				-738.87994	148.09718	574.81128	-732.46533	81.79673	574.53247	-670.71814	223.63322	1069.79395				-754.44775	-24.55152	614.82404	
198	3.940	-758.54425	276.91266	748.77802	-594.42657	107.97436	1393.25684	-717.63861	284.97586	879.85315	-656.43079	220.32376	827.96539	-720.39429	74.70300	217.95183				-779.82782	253.85493	635.87140	-642.23291	292.93234	1516.17151	-704.42664	18.90022	525.05450	-776.47888	249.96559	574.04163	-811.34424	258.35553	497.14719	-718.14539	209.47263	536.66693	-617.66577	-66.06454	1519.17639	-715.71899	155.80786	219.33432	-774.66443	225.44017	202.70735	-882.58575	296.13757	144.56622	-676.42285	175.78299	159.75258	-596.87988	226.08096	174.32962	-667.74512	301.10172	157.84224	-629.78125	308.62640	160.73714	-563.17236	263.04419	165.37321	-528.13586	303.94287	146.21599	-616.94745	114.27409	1828.86169				-625.24042	-80.42345	158.47426	-562.62543	-41.94692	162.13286	-517.73071	-73.10039	142.67387	-604.23633	17.35921	168.38666	-675.56506	53.88923	160.83943	-798.08972	175.14954	181.78392	-745.01105	-46.91575	707.85822	-795.58588	54.85147	173.58885	-872.52441	99.24457	1047.05957	-800.56750	-31.00396	485.56369	-771.82434	-6.38436	205.00244	-875.97748	-78.88188	141.21204	-666.91663	-69.82341	160.52736	-760.17450	-21.47104	568.02692				-736.55420	148.19052	574.55005	-730.49945	82.26615	574.18774							-752.28052	-24.49115	615.56763	
199	3.960	-755.26288	277.13657	748.90009	-596.90546	107.74421	1395.75549	-713.86096	285.13986	879.88782				-720.52826	74.96037	217.91768				-777.01184	254.27740	636.37012	-646.66693	292.74594	1518.55969	-703.20874	19.36023	525.03589	-774.50812	250.41670	574.10193	-809.50897	259.12134	497.64215	-716.34906	209.33832	536.59235	-622.33136	-66.19382	1522.07043	-715.56958	155.89313	219.39552	-774.52094	225.46275	202.66852	-882.61060	296.06824	144.54037	-676.56824	175.68831	159.66190	-596.77759	225.76492	174.29858	-667.56427	300.86938	158.29768	-629.84802	308.58249	160.74664	-563.09540	262.95178	165.41928	-528.03247	303.87732	146.21861	-624.24854	113.78139	1831.62988				-625.30194	-80.57328	158.49153	-562.54730	-41.94345	162.24776	-517.81781	-73.21010	142.87347	-603.86316	17.29695	168.65167	-675.44800	53.87563	160.54405	-797.73309	174.32687	182.59685	-742.78918	-46.58610	708.17224	-795.49658	54.86329	173.55324	-869.42072	99.76569	1046.89624	-798.80414	-30.80754	485.91458	-771.15283	-6.05853	205.08533	-876.11328	-78.86941	141.13728	-667.00928	-69.77089	160.50227	-758.41467	-21.30652	568.13232				-734.79059	148.36124	574.78351	-728.37878	82.22808	574.46045							-749.60565	-24.54081	615.81335	
200	3.980	-751.92358	277.71741	749.01666	-598.81073	107.51971	1398.99988	-711.07251	284.18790	879.09930				-720.39380	75.20091	217.61230				-774.35614	254.37869	636.35083	-650.88055	292.88693	1521.17175	-701.32935	19.47545	524.98267	-772.24939	250.04332	573.96777	-808.19458	259.18228	498.25015	-714.53973	209.62059	536.68701	-626.56812	-66.64003	1524.72119	-715.33911	155.80736	219.51057	-774.33582	225.55318	202.80705	-882.49646	295.94296	144.45332	-676.22040	175.48764	159.69437	-596.72510	225.97794	174.06613	-667.60077	300.94537	158.34148	-629.85291	308.54291	160.72993	-562.83954	263.18060	165.59251	-527.96460	303.86697	146.16122	-631.66156	112.64941	1834.16907				-625.30420	-80.40770	158.43373	-562.51520	-41.93975	162.07610	-517.75232	-73.27752	142.59360	-603.88116	17.42468	168.56850	-675.55109	53.88329	160.39992	-797.45410	174.49879	182.72073	-740.69733	-46.51269	708.45203	-795.42358	55.10359	173.57956	-866.61487	100.36116	1046.85950	-797.62451	-30.58706	486.32266	-771.08099	-6.02962	205.32880	-875.64880	-79.04969	141.18465	-666.85822	-69.79466	160.52005	-757.11737	-21.11280	568.11536				-732.86450	148.32889	575.18152	-727.17633	82.72914	574.83752							-748.50201	-24.21383	615.72552	
201	4.000	-749.26117	277.14328	749.16235	-600.50616	106.78979	1401.34009	-708.07990	284.71616	878.87836	-646.88220	220.39864	827.63367	-719.91016	75.46931	217.88605				-772.48291	254.60748	636.53607	-655.34216	292.46625	1523.33630	-700.33594	19.89302	524.61389	-770.71167	250.22075	574.32135	-806.17609	259.50043	498.40598	-713.25067	209.84016	536.44641	-631.67926	-67.22119	1527.13330	-715.31610	155.77127	219.51782	-774.40247	225.46838	203.05315	-882.57751	296.05408	144.51141	-676.47632	175.34579	159.35280	-596.72522	225.94360	174.06526	-667.54852	300.78751	158.27667	-629.75726	308.61108	160.99721	-563.00983	263.12500	165.41078	-527.91779	303.58215	146.18732	-638.35266	112.37820	1836.54077				-625.29559	-80.34337	158.59650	-562.44928	-42.12569	162.22636	-517.80042	-73.17164	142.51616	-603.94684	17.47097	168.50287	-675.46655	54.00629	160.44930	-797.19672	174.37517	182.81151	-738.81635	-45.90071	708.45142	-795.82953	54.97599	173.66150	-863.89777	100.27876	1046.33630	-796.41876	-30.10449	486.21652	-771.13409	-5.97699	205.42247	-875.99457	-78.94872	141.12155	-666.85962	-69.83390	160.59796	-755.44183	-20.67835	568.02167				-731.02332	148.16507	575.22211	-725.50018	82.74422	574.85266							-746.82928	-23.68212	615.89111	
202	4.020	-746.92316	277.44333	749.42639	-602.61359	107.21741	1403.67615	-705.44037	284.31079	878.96106	-644.04266	220.70555	827.77234	-719.79834	75.71938	217.73601				-770.01361	254.87947	636.93542	-659.20831	292.52283	1525.32312	-699.29999	19.97024	524.20862	-768.71808	250.25671	574.41174	-805.24896	259.26923	498.75867	-711.77039	209.79530	536.45575	-635.56195	-67.49996	1529.57605	-715.22137	155.85005	219.46523	-774.40247	225.46838	203.05315	-882.60010	295.98544	144.47417	-676.10669	174.78113	159.54820	-596.55334	225.89552	173.99861	-667.58478	300.75391	158.33633	-629.72955	308.44217	160.97888	-563.08875	263.14938	165.48689	-527.85699	303.71802	146.25517	-644.93048	111.89255	1838.54431				-625.31824	-80.49801	158.53954	-562.56848	-42.18294	162.21622	-517.89722	-73.10201	142.75932	-603.72040	17.56940	168.48222	-675.35541	54.03862	160.36391	-797.47546	175.05310	182.11960	-736.32263	-45.16006	709.31598	-795.38043	55.24532	173.77176	-861.09991	100.86899	1045.97229	-795.64325	-29.90701	486.69257	-771.07422	-5.81076	205.67255	-875.93359	-78.96604	141.13327	-666.80096	-69.73700	160.78123	-754.15186	-20.67558	568.50940				-729.43042	148.62851	575.34039	-724.13678	83.08843	574.78345							-744.80359	-23.44724	615.61823	
203	4.040	-744.00140	277.20148	749.33484	-604.90802	106.59399	1405.88318	-702.03522	284.99100	879.09723	-640.56024	221.41290	828.24542	-719.87433	75.93462	217.55791				-768.36938	255.19258	636.82147	-663.20544	292.32397	1527.19763	-697.80011	20.03677	524.33173	-767.17645	250.27252	574.69427	-803.80060	258.75644	498.54590	-709.89117	209.76959	536.43622	-639.41205	-67.37271	1531.36206	-714.95087	155.71974	219.05324	-774.30719	225.47006	203.22169	-882.67688	296.08038	144.42899	-676.30731	174.97672	158.91318	-596.57739	225.50046	173.98923	-667.50635	300.87677	158.37685	-629.76556	308.52228	161.00795	-562.96228	263.27618	165.43503	-527.63922	303.62238	146.11079	-650.81720	111.23002	1840.41956				-625.40222	-80.47852	158.43872	-562.45746	-42.25446	162.05826	-517.78168	-72.98081	142.69771	-603.66577	17.70413	168.34676	-675.35541	54.03862	160.36391	-797.22455	174.76469	182.08267	-734.49213	-45.69638	709.19464	-795.38043	55.24532	173.77176	-858.07727	101.47282	1045.76917	-794.60101	-29.75674	486.73022	-771.04773	-5.70692	205.84027	-875.64880	-79.04969	141.18465	-666.89355	-69.68448	160.75615	-752.33252	-20.53762	568.86688				-727.64935	148.46672	575.06970	-722.18158	83.32409	574.81445							-743.35980	-23.65879	616.30579	
